<?xml version="1.0" standalone="no"?>
<!DOCTYPE svg PUBLIC "-//W3C//DTD SVG 20010904//EN"
 "http://www.w3.org/TR/2001/REC-SVG-20010904/DTD/svg10.dtd">
<svg version="1.0" xmlns="http://www.w3.org/2000/svg"
 width="360.000000pt" height="360.000000pt" viewBox="0 0 360.000000 360.000000"
 preserveAspectRatio="xMidYMid meet">

<g transform="translate(0.000000,360.000000) scale(0.100000,-0.100000)"
fill="#000000" stroke="none">
<path d="M2242 3194 c-19 -13 -22 -24 -22 -85 0 -61 3 -73 25 -94 13 -14 31
-25 40 -25 12 0 15 -14 15 -70 0 -82 13 -83 -131 6 -48 30 -131 75 -185 101
-94 46 -103 48 -184 48 -81 0 -90 -2 -180 -46 -183 -88 -910 -543 -1105 -690
-151 -115 -193 -167 -203 -255 -14 -123 94 -212 227 -185 30 6 58 11 63 11 4
0 8 -135 8 -300 l0 -300 -30 0 c-90 0 -171 -102 -195 -242 -3 -21 -10 -38 -16
-38 -5 0 -30 -19 -54 -41 -67 -62 -94 -174 -61 -252 27 -65 23 -64 335 -71
156 -4 287 -9 292 -11 4 -3 -1 -24 -11 -48 -25 -55 -26 -137 -2 -167 17 -21
30 -23 253 -36 260 -15 423 -17 547 -7 96 7 124 25 142 93 14 51 1 96 -36 131
l-26 24 504 5 c665 8 1028 18 1055 32 27 13 53 75 53 126 0 72 -27 136 -75
181 -24 22 -49 41 -54 41 -5 0 -12 17 -15 38 -13 73 -37 130 -72 171 -42 49
-81 71 -124 71 l-30 0 0 300 c0 165 4 300 8 300 5 0 33 -5 63 -11 133 -27 241
62 227 185 -13 115 -89 187 -447 423 l-185 122 -1 170 0 170 28 7 c15 3 35 16
43 29 21 32 31 169 14 190 -19 23 -465 22 -498 -1z m458 -103 c0 -51 -4 -70
-15 -74 -8 -4 -74 -2 -147 3 -73 5 -151 6 -173 4 -22 -3 -52 -1 -66 4 -22 9
-27 19 -33 62 -4 28 -4 55 -1 60 4 6 93 10 221 10 l214 0 0 -69z m-159 -117
l67 -6 7 -150 c4 -82 4 -152 1 -155 -5 -6 -58 24 -213 123 l-62 39 -1 77 0 77
33 4 c17 2 48 3 67 1 19 -2 65 -6 101 -10z m-643 -332 c81 -42 987 -654 1022
-691 l26 -26 -8 -450 c-8 -483 -16 -581 -49 -647 -48 -97 -107 -127 -258 -131
l-92 -3 8 181 c4 99 8 266 8 370 0 188 0 191 -28 247 -32 66 -70 101 -147 137
-47 22 -69 26 -150 26 -74 0 -104 -4 -134 -19 -56 -28 -105 -81 -134 -145 -25
-54 -26 -62 -33 -366 -4 -170 -8 -336 -8 -367 l-1 -58 -153 0 -154 0 -12 55
c-23 104 -123 198 -225 210 -87 11 -159 -15 -223 -80 -41 -42 -56 -68 -70
-114 -18 -59 -19 -60 -53 -59 -19 0 -60 -3 -91 -7 -144 -19 -237 68 -259 243
-6 42 -14 280 -18 527 l-8 450 35 33 c65 61 993 682 1046 701 43 15 117 7 163
-17z m429 -1047 c91 -27 151 -83 173 -163 6 -22 7 -168 3 -386 l-6 -351 -261
3 c-144 2 -264 6 -268 10 -4 4 -3 168 3 366 9 347 10 360 33 405 29 55 68 94
116 115 45 20 143 20 207 1z m-901 -701 c48 -23 101 -86 115 -136 13 -50 6
-134 -14 -157 -39 -45 -23 -75 21 -41 72 57 139 64 184 20 27 -27 30 -36 25
-71 -3 -22 -8 -43 -11 -47 -21 -20 -442 -28 -716 -13 -111 6 -115 7 -123 31
-13 36 8 104 44 145 43 49 89 49 135 0 18 -19 39 -35 47 -35 26 0 28 31 6 67
-22 35 -22 36 -5 90 20 61 74 129 121 149 42 18 130 17 171 -2z"/>
<path d="M1155 1969 c-113 -17 -161 -36 -199 -80 -49 -58 -58 -110 -50 -298
l7 -156 -37 -37 c-55 -55 -47 -116 19 -144 41 -17 497 -20 634 -4 101 11 127
30 137 98 6 42 5 48 -25 74 l-31 28 7 179 c9 258 -11 308 -134 337 -64 15
-234 17 -328 3z m79 -75 c3 -26 6 -80 6 -120 l0 -74 -105 -2 c-58 -1 -124 -2
-147 -3 l-43 0 3 50 c5 71 39 136 82 157 34 17 116 34 171 37 24 1 27 -3 33
-45z m278 27 c45 -17 61 -54 66 -147 l5 -84 -139 0 c-77 0 -144 4 -150 8 -7 4
-13 54 -16 126 l-4 119 105 -6 c58 -3 118 -10 133 -16z m-309 -267 c35 -6 37
-9 37 -43 0 -20 -3 -66 -7 -103 l-6 -68 -138 0 -139 0 0 38 c0 20 -3 67 -6
104 l-7 67 49 4 c89 6 178 7 217 1z m361 -10 c12 -5 14 -20 9 -92 -3 -48 -9
-91 -13 -95 -3 -4 -68 -9 -143 -11 l-137 -4 0 104 0 104 134 0 c74 0 141 -3
150 -6z"/>
<path d="M2360 1129 c-94 -37 -72 -169 29 -169 78 0 121 100 66 155 -25 26
-53 30 -95 14z"/>
</g>
</svg>
